<?xml version="1.0" encoding="utf-8"?>
<!-- Generator: Adobe Illustrator 24.0.3, SVG Export Plug-In . SVG Version: 6.00 Build 0)  -->
<svg version="1.1" id="Layer_1" xmlns="http://www.w3.org/2000/svg" xmlns:xlink="http://www.w3.org/1999/xlink" x="0px" y="0px"
	 viewBox="0 0 297.8 152.2" style="enable-background:new 0 0 297.8 152.2;" xml:space="preserve">
<style type="text/css">
	.st0{fill:#012169;}
	.st1{fill:none;stroke:#012169;stroke-miterlimit:10;}
</style>
<title>Artboard 2</title>
<path class="st0" d="M51.5,112.5c-1.6,0-3.4,0.1-5.3,0.2c-1.9,0.1-3.5,0.2-4.8,0.2c-0.4,0-0.8,0-1.2-0.1c-0.5,0-0.8-0.4-0.8-0.9
	c0,0,0,0,0-0.1c0-0.5,0.3-1,0.8-1.3c1-0.6,2.2-1,3.4-1.1c0.6-0.1,1.2-0.2,1.8-0.4s1.2-0.5,1.6-1c0.5-0.6,0.9-1.3,1.2-2.1
	c0.3-1.2,0.5-2.5,0.4-3.8V49.4c0-0.5-0.3-1-0.8-1.2c-0.6-0.3-1.3-0.5-2-0.6c-0.8-0.1-1.6-0.2-2.5-0.2s-1.7-0.1-2.4-0.2
	c-1.3-0.1-2.1-0.3-2.6-0.4s-0.8-0.6-0.7-1.1c0-0.4,0.2-0.8,0.5-1.1c0.3-0.3,0.7-0.5,1.2-0.6s0.9-0.2,1.4-0.2s0.9-0.1,1.3-0.1h10.2
	c2.8,0,5.6-0.1,8.4-0.3c2.8-0.2,6-0.3,9.6-0.3c5.6,0,11.2,0.7,16.6,2.2c4.9,1.4,9.5,3.7,13.5,6.9c3.9,3.3,7.1,7.4,9.1,12
	c2.4,5.5,3.5,11.4,3.4,17.4c0,4.1-0.9,8.2-2.8,11.9c-1.8,3.7-4.3,7-7.5,9.7c-3.3,2.8-7,5.1-11,6.6c-4.3,1.6-8.9,2.4-13.5,2.4H51.5
	 M58.2,98.5c0,1.8,0.4,3.5,1.2,5c0.8,1.4,1.9,2.6,3.3,3.5c1.4,1,3,1.7,4.6,2.1c1.7,0.4,3.5,0.7,5.3,0.7s3.6-0.3,5.3-0.7
	c2.2-0.5,4.3-1.2,6.3-2.1c2.3-1,4.5-2.3,6.5-3.8c2.2-1.6,4.2-3.5,5.8-5.7c1.8-2.3,3.2-4.9,4.2-7.7c1.1-3.3,1.6-6.7,1.6-10.1
	c0-3.5-0.5-7.1-1.6-10.4c-1.9-5.9-5.6-11-10.5-14.8c-2.3-1.7-4.8-3.3-7.4-4.5c-4.8-2.2-9.9-3.4-15.2-3.5c-1.8,0-3.6,0.1-5.4,0.3
	c-1,0.1-1.9,0.4-2.8,0.8c-0.5,0.2-0.9,0.7-1.1,1.2c-0.1,0.4-0.2,0.8-0.2,1.2L58.2,98.5z"/>
<path class="st0" d="M135.6,114.5c-2.2,0.1-4.5-0.3-6.6-1.1c-1.7-0.7-3.1-1.8-4.1-3.2c-1-1.5-1.8-3.2-2.1-5
	c-0.4-2.1-0.6-4.3-0.6-6.5c0-1.7,0-3.6,0.1-5.7c0-2.1,0.1-4.2,0.1-6.3c0-2.2,0-4.3,0.1-6.3c0-2.1,0.1-3.9,0.1-5.5
	c0.1-0.7-0.4-1.4-1.1-1.6c-0.7-0.2-1.5-0.4-2.1-0.6c-0.9-0.2-1.8-0.5-2.7-0.8c-0.4-0.1-0.7-0.4-0.7-0.8c0-0.4,0.3-0.8,0.7-0.9
	c0,0,0,0,0.1,0c0.7-0.1,1.3-0.1,2-0.1c0.8,0,1.6,0,2.4,0.1s1.6,0.1,2.4,0.1s1.7,0,2.5-0.1s1.7-0.1,2.5-0.1s1.2,0.1,1.4,0.4
	c0.2,0.5,0.3,1.1,0.3,1.7c0,5,0,10-0.1,15s-0.1,9.9-0.1,15c-0.1,2,0.8,4,2.3,5.3c1.9,1.3,4.2,2,6.5,1.8c2.5,0.1,4.9-0.2,7.3-0.9
	c1.5-0.4,2.8-1.2,4-2.3c0.9-0.9,1.5-2,1.7-3.2c0.3-1.1,0.4-2.3,0.4-3.5c0-4,0-8,0.1-12s0.1-7.9,0.1-12c0-0.3-0.1-0.5-0.2-0.8
	c-0.2-0.3-0.5-0.5-0.8-0.6c-0.4-0.1-1-0.3-1.7-0.5s-1.8-0.5-3.1-0.8c-0.4-0.1-1.1-0.4-2-0.7s-1.3-0.7-1.3-1.1c0-0.4,0.3-0.6,0.8-0.7
	c0.6-0.1,1.1-0.2,1.7-0.2c1,0,1.9,0,2.9,0.1c0.9,0.1,1.9,0.1,2.9,0.1c1.1,0,2.2,0,3.3-0.1c1.1-0.1,2.2-0.1,3.3-0.1
	c0.5,0,1,0.2,1.5,0.4c0.6,0.3,0.9,0.9,0.9,2c0,5.7-0.1,11.3-0.2,17c-0.1,5.6-0.2,11.3-0.2,17c0,1.2,0.4,1.9,1.1,2.2
	c0.6,0.3,1.2,0.4,1.8,0.4c2.2,0,3.7,0,4.5,0.1c0.9,0.1,1.3,0.4,1.3,1c0,0.4-0.2,0.7-0.5,0.9c-0.6,0.2-1.1,0.4-1.7,0.4
	c-4,0.6-7.1,1.1-9.3,1.5c-1.4,0.3-2.8,0.5-4.2,0.7c-0.4,0-0.7-0.2-0.8-0.5c-0.1-0.4-0.1-0.9-0.1-1.3v-2.6c0-0.9-0.3-1.3-0.8-1.3
	c-0.7,0.1-1.4,0.5-1.9,1c-0.8,0.7-1.9,1.4-3.2,2.3c-1.4,0.9-3,1.7-4.6,2.3C139.6,114.2,137.6,114.6,135.6,114.5"/>
<path class="st0" d="M178,48.7c0.1-1.1-0.2-2.3-0.8-3.2c-0.5-0.6-1.2-1.1-1.9-1.3c-0.7-0.3-1.3-0.5-1.9-0.6c-0.5-0.1-0.9-0.5-0.8-1
	c0-0.4,0.2-0.7,0.6-0.8c0.6-0.3,1.2-0.5,1.8-0.7l7.6-2.9c0.3-0.1,0.6-0.2,0.9-0.2h1c0.3,0,0.6,0.2,0.8,0.4c0.3,0.5,0.5,1.1,0.4,1.6
	v46.1c0,1.2,0.3,1.8,1,1.8c0.6-0.2,1.2-0.4,1.7-0.7c1-0.5,2.2-1.1,3.5-1.9c1.3-0.8,2.8-1.7,4.3-2.6c1.5-1,2.9-1.9,4.2-2.8
	c1.3-0.9,2.3-1.7,3.2-2.4c0.9-0.7,1.3-1.3,1.3-1.6c0-0.6-0.2-1.3-0.7-1.7c-0.4-0.4-0.9-0.7-1.5-1c-0.5-0.3-1-0.5-1.5-0.8
	c-0.4-0.2-0.7-0.6-0.7-1.1c0-0.3,0.2-0.6,0.5-0.8s0.7-0.3,1.1-0.3c1.2,0,2.6,0,4.1,0.1s3,0.1,4.5,0.1c1.4,0,2.9,0,4.4-0.1
	s2.9-0.1,4-0.1c0.5,0,1,0.1,1.5,0.2c0.5,0.2,0.7,0.6,0.7,1.1c0,0.3-0.2,0.6-0.6,0.8c-0.5,0.3-1,0.5-1.5,0.7
	c-0.6,0.2-1.2,0.4-1.9,0.6c-0.6,0.2-1.1,0.4-1.5,0.5c-0.8,0.4-2.4,1.2-4.8,2.5s-4.8,2.7-7.3,4.2S199,83.7,197,85
	c-1.9,1.3-2.9,2.1-2.9,2.4c0,0.3,0.1,0.7,0.3,1c0.2,0.2,0.4,0.4,0.6,0.6l19.4,17.6c1,0.9,2.1,1.7,3.3,2.4c1.1,0.5,2,1,2.9,1.3
	c0.8,0.3,1.5,0.6,2,0.8s0.7,0.5,0.7,0.9c0,0.7-1,1.1-2.9,1.1c-1.2,0-2.5-0.1-3.9-0.2c-1.4-0.1-3-0.2-4.7-0.2c-1.4,0-2.8,0.1-4.3,0.2
	c-1.3,0.1-2.7,0.2-4,0.2c-0.9,0-1.7,0-2.6-0.2c-0.5-0.1-0.8-0.5-0.8-0.9c0-0.5,0.4-1,0.9-1.1c0.8-0.2,1.6-0.4,2.4-0.5
	c0.5-0.1,1.1-0.2,1.5-0.6c0.4-0.2,0.6-0.6,0.6-1s-0.4-1-1.2-1.8l-16.9-16c-0.5-0.4-0.8-0.7-1-0.7c-0.5,0-0.8,0.2-0.8,0.6v15.9
	c-0.1,1,0.2,1.9,0.8,2.6c0.5,0.4,1,0.8,1.6,0.9c0.7,0.3,1.5,0.5,2.3,0.6c0.6,0.1,1,0.4,1,1c0,0.4-0.3,0.7-0.8,0.9
	c-0.6,0.1-1.2,0.2-1.7,0.2c-1.3,0-2.6-0.1-3.8-0.2c-1.2-0.1-2.5-0.2-3.7-0.2c-1.4,0-2.8,0.1-4.3,0.2c-1.5,0.1-2.8,0.2-3.8,0.2
	c-0.5,0-1.1-0.1-1.6-0.2c-0.7-0.1-1.1-0.4-1.1-1c0-0.4,0.2-0.9,0.6-1.1c0.5-0.2,1-0.4,1.5-0.5c0.7-0.2,1.5-0.4,2.1-0.6
	c0.6-0.1,1.2-0.4,1.8-0.7c0.5-0.3,0.9-0.8,1.2-1.3c0.3-0.9,0.4-1.8,0.4-2.7L178,48.7"/>
<path class="st0" d="M230.8,86.5c-0.2,0.5-0.2,1-0.2,1.6v2.4c0,2.3,0.2,4.7,0.6,7c0.4,2.1,1.2,4.2,2.4,6c1.3,1.8,3,3.3,4.9,4.2
	c2.6,1.2,5.5,1.7,8.3,1.6c1.7,0.1,3.4-0.2,5-0.7c1-0.3,2-0.9,2.8-1.5c0.6-0.5,1.1-1,1.6-1.6c0.3-0.4,0.7-0.7,1.2-0.7
	c0.7,0,1,0.3,1,0.9c-0.2,0.6-0.5,1.2-0.9,1.7c-0.8,1.2-1.8,2.2-2.9,3c-1.6,1.2-3.3,2.2-5.1,2.9c-2.4,0.9-4.9,1.4-7.4,1.3
	c-6.2,0-11-2-14.4-6.1s-5.1-9.6-5.1-16.7c0-2.8,0.4-5.5,1.2-8.1c0.8-2.7,2.1-5.3,3.7-7.6c1.7-2.3,3.9-4.2,6.3-5.7
	c2.8-1.6,5.9-2.3,9.1-2.2c2.8-0.1,5.6,0.5,8.1,1.8c2,1.1,3.9,2.5,5.3,4.3c1.3,1.5,2.3,3.3,2.9,5.2c0.5,1.4,0.8,2.9,0.9,4.5
	c0.1,0.7-0.1,1.4-0.4,2.1c-0.3,0.3-0.9,0.5-1.8,0.5L230.8,86.5 M241.5,83.1c2,0,4-0.1,5.9-0.3c1.2-0.1,2.4-0.4,3.5-1
	c0.7-0.3,1.3-0.9,1.6-1.7c0.3-0.8,0.4-1.7,0.4-2.6c0-1.9-0.9-3.7-2.4-4.9c-1.7-1.3-3.8-2-5.9-2c-1.9,0-3.8,0.4-5.4,1.3
	c-1.5,0.8-2.9,1.8-4,3.1c-1,1.1-1.9,2.3-2.5,3.7c-0.5,1-0.8,2.1-0.9,3.2c0,0.2,0,0.4,0.2,0.5c0.3,0.2,0.7,0.3,1.1,0.3
	c0.6,0.1,1.6,0.1,2.9,0.2C237.2,83.1,239.1,83.1,241.5,83.1L241.5,83.1z"/>
<line class="st1" x1="296.8" y1="38" x2="296.8" y2="114.6"/>
</svg>
